<?xml version="1.0" standalone="no"?><!DOCTYPE svg PUBLIC "-//W3C//DTD SVG 1.1//EN" "http://www.w3.org/Graphics/SVG/1.1/DTD/svg11.dtd"><svg t="1489459550210" class="icon" style="" viewBox="0 0 1024 1024" version="1.1" xmlns="http://www.w3.org/2000/svg" p-id="1546" xmlns:xlink="http://www.w3.org/1999/xlink" width="1rem" height="1rem"><defs><style type="text/css"></style></defs><path d="M987.429 412.367q0 12.581-14.848 27.429l-207.433 202.277 49.152 285.696q0.585 3.986 0.585 11.447 0 11.995-5.998 20.297t-17.445 8.302q-10.862 0-22.857-6.839l-256.585-134.839-256.585 134.839q-12.581 6.839-22.857 6.839-11.995 0-17.993-8.302t-5.998-20.297q0-3.438 1.134-11.447l49.152-285.696-208.018-202.277q-14.299-15.433-14.299-27.429 0-21.138 32-26.295l286.866-41.728 128.585-259.986q10.862-23.442 28.014-23.442t28.014 23.442l128.585 259.986 286.866 41.728q32 5.157 32 26.295z" p-id="1547" fill="#fa8b15"></path></svg>